# xmcd
# Copyright (C) 1995-1998 Ti Kan
#
# Track frame offsets:
#       150
#       8621
#       16179
#       34458
#       41513
#       58058
#       71989
#       84310
#       89734
#       103389
#       128740
#       137832
#       152472
#       167910
#
# Disc length: 2540 seconds
#
# Revision: 0
# Processed by: cddbd v1.5.2PL0 Copyright (c) Steve Scherf et al.
# Submitted via: CD-Transfer v1.0
#
DISCID=bc09ea0e
DTITLE=Horslips - Tradicional
DYEAR=73
DGENRE=
TTITLE0=Setanta
TTITLE1=Maeve's Court
TTITLE2=Charolais
TTITLE3=March
TTITLE4=You Can't Fool The Beast
TTITLE5=Dearg Doom
TTITLE6=Ferdia's Song
TTITLE7=Gae Bolga
TTITLE8=Cu Chulainn's Lament
TTITLE9=Faster Than The Hound
TTITLE10=Silver Spear, The
TTITLE11=More Than You Can Chew
TTITLE12=Morrigan's Dream, The
TTITLE13=Time To Kill
EXTD=
EXTT0=
EXTT1=
EXTT2=
EXTT3=
EXTT4=
EXTT5=
EXTT6=
EXTT7=
EXTT8=
EXTT9=
EXTT10=
EXTT11=
EXTT12=
EXTT13=
PLAYORDER=
